<?xml version="1.0" encoding="UTF-8"?>
<svg version="1.1" xmlns="http://www.w3.org/2000/svg" width="225" height="225">
<path d="M0 0 C74.25 0 148.5 0 225 0 C225 74.25 225 148.5 225 225 C150.75 225 76.5 225 0 225 C0 150.75 0 76.5 0 0 Z " fill="#EC6D47" transform="translate(0,0)"/>
<path d="M0 0 C0.80183716 -0.01606293 1.60367432 -0.03212585 2.42980957 -0.04867554 C6.10911791 -0.09367855 9.78825301 -0.13423733 13.46777344 -0.15722656 C15.39563129 -0.17370674 17.32343008 -0.20089052 19.25097656 -0.23925781 C32.70404961 -0.50517452 44.91043861 -0.42260286 55.25585938 9.50537109 C63.5213223 17.5320245 67.52809092 24.45177673 69.80664062 35.69677734 C70.05776611 36.91034912 70.05776611 36.91034912 70.31396484 38.1484375 C70.64687926 39.78658266 70.96269912 41.42830671 71.26025391 43.07324219 C72.0242458 47.33466436 72.0242458 47.33466436 74.53710938 50.70068359 C78.49251283 51.53131832 82.44991369 51.5902346 86.48046875 51.67138672 C91.45070875 51.87375002 91.45070875 51.87375002 93.57020569 53.44616699 C95.21779019 55.64189775 95.26594972 56.85336215 95.28491211 59.58154297 C95.30393837 60.90937805 95.30393837 60.90937805 95.323349 62.26403809 C95.32041336 63.22024048 95.31747772 64.17644287 95.31445312 65.16162109 C95.31969498 66.15230591 95.32493683 67.14299072 95.33033752 68.16369629 C95.33676672 70.26520858 95.33540917 72.36675681 95.3269043 74.46826172 C95.31846456 77.65317881 95.34702923 80.83625953 95.37890625 84.02099609 C95.38052035 86.06787056 95.37993675 88.11474816 95.37695312 90.16162109 C95.3881871 91.10162964 95.39942108 92.04163818 95.41099548 93.01013184 C95.29111317 104.6449582 90.80265515 114.90735657 82.84570312 123.35302734 C71.13158218 134.40603388 58.6978796 136.50100537 43.08007812 136.52880859 C41.11093193 136.53879379 41.11093193 136.53879379 39.102005 136.54898071 C36.33432728 136.56088854 33.56677376 136.56466828 30.79907227 136.56347656 C27.28583483 136.5632737 23.77340918 136.59057046 20.26036358 136.62502098 C16.86692608 136.65285911 13.47362786 136.65144472 10.08007812 136.65380859 C8.8359465 136.66817963 7.59181488 136.68255066 6.3099823 136.69735718 C-7.93248775 136.62379313 -18.84225701 132.10252686 -29.30664062 122.56787109 C-36.82268864 114.76621325 -40.21592366 105.3863813 -40.28027344 94.7253418 C-40.28988098 93.43662674 -40.29948853 92.14791168 -40.30938721 90.82014465 C-40.31423696 89.41964903 -40.31851535 88.01915134 -40.32226562 86.61865234 C-40.325093 85.9075701 -40.32792038 85.19648785 -40.33083344 84.46385765 C-40.34579437 80.69815071 -40.35504239 76.93248175 -40.359375 73.16674805 C-40.36484414 69.30138285 -40.38884774 65.43637266 -40.41734695 61.57111835 C-40.43609209 58.57772348 -40.44118528 55.58441194 -40.44271088 52.59096336 C-40.44571302 51.16738133 -40.45365777 49.7437999 -40.46689606 48.32027626 C-40.55320295 38.32329273 -40.22507319 28.76423113 -34.18164062 20.38037109 C-33.69824219 19.69330078 -33.21484375 19.00623047 -32.71679688 18.29833984 C-31.92595703 17.25613281 -31.92595703 17.25613281 -31.11914062 16.19287109 C-30.50425781 15.35626953 -29.889375 14.51966797 -29.25585938 13.65771484 C-22.39188911 5.73967968 -10.51248265 0.19284664 0 0 Z " fill="#FEFDFD" transform="translate(86.119140625,43.80712890625)"/>
<path d="M0 0 C74.25 0 148.5 0 225 0 C225 74.25 225 148.5 225 225 C150.75 225 76.5 225 0 225 C0 150.75 0 76.5 0 0 Z M76 8 C75.030625 8.31066406 74.06125 8.62132812 73.0625 8.94140625 C46.65789145 18.3776686 24.90214024 40.08529845 12.69995117 64.88183594 C9.3579094 72.0195747 7.05316205 79.40496964 5 87 C4.76539063 87.86367187 4.53078125 88.72734375 4.2890625 89.6171875 C-1.18638862 111.91576378 2.36260121 137.34371349 12 158 C12.4328833 158.93996826 12.4328833 158.93996826 12.87451172 159.89892578 C24.86827319 185.37188484 46.6575012 205.9277034 73.1171875 215.7890625 C77.694024 217.38173454 82.31368582 218.7624677 87 220 C87.63703857 220.18546387 88.27407715 220.37092773 88.93041992 220.56201172 C96.3219546 222.50957556 103.84762486 222.39673208 111.4375 222.375 C112.1486496 222.37445618 112.85979919 222.37391235 113.59249878 222.37335205 C124.79972444 222.33393052 135.31644158 221.59145897 146 218 C146.64098633 217.79101074 147.28197266 217.58202148 147.94238281 217.36669922 C163.71337553 212.06869336 176.79066022 203.11494518 189 192 C189.65226563 191.43023437 190.30453125 190.86046875 190.9765625 190.2734375 C205.99171298 176.39687663 215.40771284 156.64478396 220 137 C220.21140625 136.17242187 220.4228125 135.34484375 220.640625 134.4921875 C225.59499192 114.17928314 222.93212936 93.43547924 216 74 C215.70351562 73.11054687 215.40703125 72.22109375 215.1015625 71.3046875 C210.24967519 57.81733104 201.53992972 46.47924588 192 36 C191.43023437 35.34773438 190.86046875 34.69546875 190.2734375 34.0234375 C174.28068905 16.71846354 148.04961745 4.13242281 124.58520508 2.80712891 C107.79047865 2.42765203 92.07931799 2.42206432 76 8 Z " fill="#F3F1F1" transform="translate(0,0)"/>
<path d="M0 0 C1.76947998 -0.00361794 1.76947998 -0.00361794 3.57470703 -0.00730896 C6.06611496 -0.00633048 8.55754463 0.00706316 11.04882812 0.03198242 C14.86142874 0.06628415 18.67171104 0.05264043 22.484375 0.03320312 C24.90625986 0.04010168 27.32813875 0.04977415 29.75 0.0625 C30.88969238 0.05754013 32.02938477 0.05258026 33.20361328 0.04747009 C41.06165648 0.16436101 41.06165648 0.16436101 45.0625 2.44946289 C47.64516394 5.55499104 48.01590009 7.61325373 47.875 11.62890625 C46.21896671 14.209658 45.48547535 15.19935519 42.875 16.62890625 C38.67975655 17.38508801 34.53073486 17.32924893 30.27734375 17.29296875 C29.05092667 17.29775238 27.82450958 17.30253601 26.56092834 17.3074646 C23.97118851 17.31086379 21.38140578 17.30166032 18.79174805 17.28076172 C14.8230859 17.25397769 10.85724656 17.28052512 6.88867188 17.3125 C4.37238958 17.30919636 1.85610904 17.30279109 -0.66015625 17.29296875 C-1.84875748 17.3030899 -3.0373587 17.31321106 -4.26197815 17.32363892 C-12.45138702 17.20680254 -12.45138702 17.20680254 -15.86889648 14.27490234 C-17.42721096 10.99229549 -17.79774026 9.2168543 -17.125 5.62890625 C-12.74576498 -0.89603363 -7.14418789 -0.08310939 0 0 Z " fill="#EB6D47" transform="translate(98.125,127.37109375)"/>
<path d="M0 0 C1.35889844 -0.01653832 2.71771063 -0.04380155 4.07617188 -0.08203125 C6.04088944 -0.13699841 8.00651782 -0.15557123 9.97192383 -0.17333984 C11.14795166 -0.19315918 12.32397949 -0.21297852 13.53564453 -0.23339844 C17.68092218 0.52293514 19.14499553 2.09701225 21.73364258 5.35009766 C22.43822962 9.10789522 22.11236617 10.71667077 20.15161133 13.99609375 C16.88912946 17.17227006 14.98570436 16.99454211 10.48364258 17.01416016 C9.78851563 17.01894379 9.09338867 17.02372742 8.37719727 17.02865601 C6.91135386 17.03204992 5.44543424 17.02288247 3.97973633 17.00195312 C1.73973372 16.97517049 -0.49526008 17.00170765 -2.73510742 17.03369141 C-4.16220178 17.03038721 -5.58929303 17.02398073 -7.01635742 17.01416016 C-8.31057617 17.00852051 -9.60479492 17.00288086 -10.93823242 16.99707031 C-14.26635742 16.35009766 -14.26635742 16.35009766 -16.68823242 14 C-18.61919582 10.75763046 -18.89833131 9.06294425 -18.26635742 5.35009766 C-13.17745792 -0.92621173 -7.59054788 0.06768292 0 0 Z " fill="#EA6D47" transform="translate(99.266357421875,78.64990234375)"/>
<path d="M0 0 C2.97 0 5.94 0 9 0 C9 2.64 9 5.28 9 8 C10.258125 7.855625 11.51625 7.71125 12.8125 7.5625 C13.87404297 7.44068359 13.87404297 7.44068359 14.95703125 7.31640625 C17.19396393 7.02829265 17.19396393 7.02829265 20 6 C19.690625 6.515625 19.38125 7.03125 19.0625 7.5625 C17.70940713 10.66665423 17.38640576 13.65115007 17 17 C14.36 17 11.72 17 9 17 C9 19.64 9 22.28 9 25 C6.03 25 3.06 25 0 25 C0 27.97 0 30.94 0 34 C-2.64 34 -5.28 34 -8 34 C-8 25.42 -8 16.84 -8 8 C-5.36 8 -2.72 8 0 8 C0 5.36 0 2.72 0 0 Z " fill="#F4F4F3" transform="translate(8,177)"/>
<path d="M0 0 C25.08 0 50.16 0 76 0 C76 2.64 76 5.28 76 8 C72.11431163 9.49376828 69.52925848 8.43417739 65.6875 7.125 C56.08242822 3.87405263 46.65292704 3.72757335 36.625 3.6875 C35.91123199 3.68355225 35.19746399 3.67960449 34.46206665 3.67553711 C23.4211729 3.64696473 13.59777846 4.78768285 3 8 C2.01 8 1.02 8 0 8 C0 5.36 0 2.72 0 0 Z " fill="#F8F4F2" transform="translate(76,0)"/>
<path d="M0 0 C2.64 0 5.28 0 8 0 C8.33 1.65 8.66 3.3 9 5 C8.33355469 5.44988281 7.66710937 5.89976563 6.98046875 6.36328125 C-0.52511948 11.60144702 -6.68975431 17.38926642 -13 24 C-13.66 24.66 -14.32 25.32 -15 26 C-16 25 -16 25 -16.09765625 23.15234375 C-16.06510417 21.1015625 -16.03255208 19.05078125 -16 17 C-13.36 17 -10.72 17 -8 17 C-8 14.03 -8 11.06 -8 8 C-5.36 8 -2.72 8 0 8 C0 5.36 0 2.72 0 0 Z " fill="#E9E5E3" transform="translate(42,17)"/>
<path d="M0 0 C1.0415625 0.2578125 2.083125 0.515625 3.15625 0.78125 C3.15625 3.42125 3.15625 6.06125 3.15625 8.78125 C0.51625 8.78125 -2.12375 8.78125 -4.84375 8.78125 C-4.84375 11.42125 -4.84375 14.06125 -4.84375 16.78125 C-7.48375 16.78125 -10.12375 16.78125 -12.84375 16.78125 C-13.625 13.625 -13.625 13.625 -13.84375 9.78125 C-12 6.875 -12 6.875 -9.34375 4.28125 C-8.4878125 3.4046875 -7.631875 2.528125 -6.75 1.625 C-3.84375 -0.21875 -3.84375 -0.21875 0 0 Z " fill="#E7E7E6" transform="translate(198.84375,185.21875)"/>
<path d="M0 0 C4 4 8 8 12 12 C12.57105469 12.51949219 13.14210938 13.03898438 13.73046875 13.57421875 C14.14941406 14.04472656 14.56835938 14.51523438 15 15 C14.6875 17.1875 14.6875 17.1875 14 19 C11.36 19 8.72 19 6 19 C6 16.36 6 13.72 6 11 C3.03 11 0.06 11 -3 11 C-3.36923077 4.6 -3.36923077 4.6 -1.5 1.5625 C-1.005 1.046875 -0.51 0.53125 0 0 Z " fill="#EAE7E6" transform="translate(28,183)"/>
<path d="M0 0 C0 2.97 0 5.94 0 9 C2.64 9 5.28 9 8 9 C8 11.64 8 14.28 8 17 C5.78125 17.7890625 5.78125 17.7890625 3 18 C0.71875 16.0859375 0.71875 16.0859375 -1.5 13.375 C-2.27214844 12.4571875 -3.04429687 11.539375 -3.83984375 10.59375 C-4.55269531 9.7378125 -5.26554688 8.881875 -6 8 C-7.62834687 6.28515895 -9.30055144 4.64462764 -11 3 C-7.48550811 -0.37391222 -4.73940561 -0.27342725 0 0 Z " fill="#EAE7E5" transform="translate(194,25)"/>
<path d="M0 0 C0 1.65 0 3.3 0 5 C-13.86 5 -27.72 5 -42 5 C-42 3.68 -42 2.36 -42 1 C-40.96069336 1.00523682 -39.92138672 1.01047363 -38.85058594 1.01586914 C-34.98910384 1.0339898 -31.12762548 1.04545786 -27.26611328 1.05493164 C-25.59585945 1.05995569 -23.92561001 1.06677605 -22.25537109 1.07543945 C-19.85252804 1.08758946 -17.44974321 1.09324763 -15.046875 1.09765625 C-13.9294693 1.10539818 -13.9294693 1.10539818 -12.78948975 1.11329651 C-8.39148064 1.11377077 -4.31623594 0 0 0 Z " fill="#F9F8F6" transform="translate(135,220)"/>
<path d="M0 0 C2.97 0 5.94 0 9 0 C9 2.64 9 5.28 9 8 C6.03 8 3.06 8 0 8 C0 5.36 0 2.72 0 0 Z M-8 8 C-5.36 8 -2.72 8 0 8 C0 9.98 0 11.96 0 14 C-2.64 14 -5.28 14 -8 14 C-8 12.02 -8 10.04 -8 8 Z " fill="#FDFDFD" transform="translate(25,211)"/>
<path d="M0 0 C1.98 0 3.96 0 6 0 C6 2.64 6 5.28 6 8 C4.02 8 2.04 8 0 8 C0 5.36 0 2.72 0 0 Z M-8 8 C-5.36 8 -2.72 8 0 8 C0 10.97 0 13.94 0 17 C-2.64 17 -5.28 17 -8 17 C-8 14.03 -8 11.06 -8 8 Z " fill="#FDFDFD" transform="translate(219,17)"/>
<path d="M0 0 C2.97 0 5.94 0 9 0 C9 2.64 9 5.28 9 8 C10.65 8 12.3 8 14 8 C14 9.98 14 11.96 14 14 C12.02 14 10.04 14 8 14 C8 12.35 8 10.7 8 9 C5.36 9 2.72 9 0 9 C0 6.03 0 3.06 0 0 Z " fill="#FFFFFF" transform="translate(211,211)"/>
<path d="M0 0 C1.98 0 3.96 0 6 0 C6 2.64 6 5.28 6 8 C8.64 8 11.28 8 14 8 C14 10.64 14 13.28 14 16 C11.69 16 9.38 16 7 16 C6.01585567 14.08588443 5.03786651 12.1686033 4.0625 10.25 C3.51722656 9.18265625 2.97195312 8.1153125 2.41015625 7.015625 C1.28783725 4.61554115 0.49498341 2.58143248 0 0 Z " fill="#FEFDFC" transform="translate(205,51)"/>
<path d="M0 0 C2.97 0 5.94 0 9 0 C9 2.64 9 5.28 9 8 C5.18510326 9.46726798 2.70988378 8.43336419 -1 7 C-0.67 4.69 -0.34 2.38 0 0 Z " fill="#E9E5E4" transform="translate(143,0)"/>
<path d="M0 0 C2.97 0 5.94 0 9 0 C9 2.64 9 5.28 9 8 C6.03 8 3.06 8 0 8 C0 5.36 0 2.72 0 0 Z " fill="#FDFDFD" transform="translate(25,194)"/>
<path d="M0 0 C2.05078125 0.03255208 4.1015625 0.06510417 6.15234375 0.09765625 C6.15234375 2.73765625 6.15234375 5.37765625 6.15234375 8.09765625 C3.18234375 8.09765625 0.21234375 8.09765625 -2.84765625 8.09765625 C-2.89007348 5.7647085 -2.88858562 3.43063058 -2.84765625 1.09765625 C-1.84765625 0.09765625 -1.84765625 0.09765625 0 0 Z " fill="#FDFDFD" transform="translate(162.84765625,210.90234375)"/>
<path d="M0 0 C2.25 2.6875 2.25 2.6875 3.25 4.6875 C0.16111478 6.74675681 -0.45935927 6.9265374 -3.9375 6.8125 C-5.8246875 6.750625 -5.8246875 6.750625 -7.75 6.6875 C-7.75 4.0475 -7.75 1.4075 -7.75 -1.3125 C-3.95668015 -2.72144737 -3.19572611 -2.68731514 0 0 Z " fill="#E9E6E5" transform="translate(24.75,178.3125)"/>
<path d="M0 0 C2.64 0 5.28 0 8 0 C8.36923077 7.50769231 8.36923077 7.50769231 6.5 10 C6.005 10.33 5.51 10.66 5 11 C0.68393782 8.00518135 0.68393782 8.00518135 -1 6 C-0.875 2.6875 -0.875 2.6875 0 0 Z " fill="#E9E6E4" transform="translate(177,17)"/>
<path d="M0 0 C0.33 0.66 0.66 1.32 1 2 C3.31 2 5.62 2 8 2 C8 4.64 8 7.28 8 10 C5.36 10 2.72 10 0 10 C-0.19412181 8.52168779 -0.38012131 7.04230684 -0.5625 5.5625 C-0.66691406 4.73878906 -0.77132812 3.91507813 -0.87890625 3.06640625 C-0.91886719 2.38449219 -0.95882812 1.70257813 -1 1 C-0.67 0.67 -0.34 0.34 0 0 Z " fill="#E7E7E6" transform="translate(177,201)"/>
<path d="M0 0 C2.64 0 5.28 0 8 0 C8.6875 2.75 8.6875 2.75 9 6 C7.5625 8.375 7.5625 8.375 6 10 C6 9.34 6 8.68 6 8 C4.02 8 2.04 8 0 8 C0 5.36 0 2.72 0 0 Z " fill="#E8E5E4" transform="translate(9,51)"/>
<path d="M0 0 C3.625 0.375 3.625 0.375 7 1 C7 3.64 7 6.28 7 9 C4.36 9 1.72 9 -1 9 C-1.625 5.625 -1.625 5.625 -2 2 C-1.34 1.34 -0.68 0.68 0 0 Z " fill="#E7E7E5" transform="translate(195,185)"/>
<path d="M0 0 C0 2.97 0 5.94 0 9 C-2.64 9 -5.28 9 -8 9 C-8 6.69 -8 4.38 -8 2 C-5.09399739 0.74335022 -3.20395416 0 0 0 Z " fill="#FEFEFD" transform="translate(219,160)"/>
<path d="M0 0 C1.40783184 2.62795276 2.50772334 5.04634002 3 8 C2.67 8.66 2.34 9.32 2 10 C-0.64 10 -3.28 10 -6 10 C-6 7.36 -6 4.72 -6 2 C-4.02 2 -2.04 2 0 2 C0 1.34 0 0.68 0 0 Z " fill="#E8E5E4" transform="translate(6,142)"/>
<path d="M0 0 C2.64 0 5.28 0 8 0 C8 2.97 8 5.94 8 9 C5.36 8.67 2.72 8.34 0 8 C0 5.36 0 2.72 0 0 Z " fill="#FEFEFE" transform="translate(68,0)"/>
<path d="M0 0 C0 2.97 0 5.94 0 9 C-2.64 9 -5.28 9 -8 9 C-8 6.36 -8 3.72 -8 1 C-1.125 0 -1.125 0 0 0 Z " fill="#FDFDFD" transform="translate(34,25)"/>
<path d="M0 0 C2.64 0 5.28 0 8 0 C8 2.64 8 5.28 8 8 C4.71023192 9.09658936 3.28696233 8.79953138 0 8 C0 5.36 0 2.72 0 0 Z " fill="#E7E6E5" transform="translate(51,9)"/>
<path d="M0 0 C2.64 0 5.28 0 8 0 C8 2.64 8 5.28 8 8 C5.36 8 2.72 8 0 8 C0 5.36 0 2.72 0 0 Z " fill="#E7E7E7" transform="translate(203,211)"/>
<path d="M0 0 C2.64 0 5.28 0 8 0 C8 2.64 8 5.28 8 8 C5.36 8 2.72 8 0 8 C0 5.36 0 2.72 0 0 Z " fill="#FFFFFF" transform="translate(194,211)"/>
<path d="M0 0 C2.64 0 5.28 0 8 0 C8 2.64 8 5.28 8 8 C5.36 8 2.72 8 0 8 C0 5.36 0 2.72 0 0 Z " fill="#E6E6E6" transform="translate(186,211)"/>
<path d="M0 0 C2.64 0 5.28 0 8 0 C8 2.64 8 5.28 8 8 C5.36 8 2.72 8 0 8 C0 5.36 0 2.72 0 0 Z " fill="#E6E6E6" transform="translate(169,211)"/>
<path d="M0 0 C2.64 0 5.28 0 8 0 C8 2.64 8 5.28 8 8 C5.36 8 2.72 8 0 8 C0 5.36 0 2.72 0 0 Z " fill="#E6E6E6" transform="translate(51,211)"/>
<path d="M0 0 C2.64 0 5.28 0 8 0 C8 2.64 8 5.28 8 8 C5.36 8 2.72 8 0 8 C0 5.36 0 2.72 0 0 Z " fill="#FEFEFE" transform="translate(42,211)"/>
<path d="M0 0 C2.64 0 5.28 0 8 0 C8 2.64 8 5.28 8 8 C5.36 8 2.72 8 0 8 C0 5.36 0 2.72 0 0 Z " fill="#E6E6E6" transform="translate(34,211)"/>
<path d="M0 0 C2.64 0 5.28 0 8 0 C8 2.64 8 5.28 8 8 C5.36 8 2.72 8 0 8 C0 5.36 0 2.72 0 0 Z " fill="#E6E6E6" transform="translate(17,211)"/>
<path d="M0 0 C2.64 0 5.28 0 8 0 C8 2.64 8 5.28 8 8 C5.36 8 2.72 8 0 8 C0 5.36 0 2.72 0 0 Z " fill="#FFFFFF" transform="translate(9,211)"/>
<path d="M0 0 C2.64 0 5.28 0 8 0 C8 2.64 8 5.28 8 8 C5.36 8 2.72 8 0 8 C0 5.36 0 2.72 0 0 Z " fill="#E6E6E6" transform="translate(0,211)"/>
<path d="M0 0 C2.64 0 5.28 0 8 0 C8 2.64 8 5.28 8 8 C5.36 8 2.72 8 0 8 C0 5.36 0 2.72 0 0 Z " fill="#E6E6E6" transform="translate(211,203)"/>
<path d="M0 0 C2.64 0 5.28 0 8 0 C8 2.64 8 5.28 8 8 C5.36 8 2.72 8 0 8 C0 5.36 0 2.72 0 0 Z " fill="#FFFFFF" transform="translate(203,203)"/>
<path d="M0 0 C2.64 0 5.28 0 8 0 C8 2.64 8 5.28 8 8 C5.36 8 2.72 8 0 8 C0 5.36 0 2.72 0 0 Z " fill="#E5E5E5" transform="translate(194,203)"/>
<path d="M0 0 C2.64 0 5.28 0 8 0 C8 2.64 8 5.28 8 8 C5.36 8 2.72 8 0 8 C0 5.36 0 2.72 0 0 Z " fill="#FFFFFE" transform="translate(186,203)"/>
<path d="M0 0 C2.64 0 5.28 0 8 0 C8 2.64 8 5.28 8 8 C5.36 8 2.72 8 0 8 C0 5.36 0 2.72 0 0 Z " fill="#FFFFFF" transform="translate(34,203)"/>
<path d="M0 0 C2.64 0 5.28 0 8 0 C8 2.64 8 5.28 8 8 C5.36 8 2.72 8 0 8 C0 5.36 0 2.72 0 0 Z " fill="#FFFEFF" transform="translate(17,203)"/>
<path d="M0 0 C2.64 0 5.28 0 8 0 C8 2.64 8 5.28 8 8 C5.36 8 2.72 8 0 8 C0 5.36 0 2.72 0 0 Z " fill="#FFFFFF" transform="translate(0,203)"/>
<path d="M0 0 C2.64 0 5.28 0 8 0 C8 2.64 8 5.28 8 8 C5.36 8 2.72 8 0 8 C0 5.36 0 2.72 0 0 Z " fill="#FFFFFF" transform="translate(211,194)"/>
<path d="M0 0 C2.64 0 5.28 0 8 0 C8 2.64 8 5.28 8 8 C5.36 8 2.72 8 0 8 C0 5.36 0 2.72 0 0 Z " fill="#E6E6E6" transform="translate(203,194)"/>
<path d="M0 0 C2.64 0 5.28 0 8 0 C8 2.64 8 5.28 8 8 C5.36 8 2.72 8 0 8 C0 5.36 0 2.72 0 0 Z " fill="#FFFEFE" transform="translate(194,194)"/>
<path d="M0 0 C2.64 0 5.28 0 8 0 C8 2.64 8 5.28 8 8 C5.36 8 2.72 8 0 8 C0 5.36 0 2.72 0 0 Z " fill="#E7E7E7" transform="translate(17,194)"/>
<path d="M0 0 C2.64 0 5.28 0 8 0 C8 2.64 8 5.28 8 8 C5.36 8 2.72 8 0 8 C0 5.36 0 2.72 0 0 Z " fill="#FEFEFE" transform="translate(9,194)"/>
<path d="M0 0 C2.64 0 5.28 0 8 0 C8 2.64 8 5.28 8 8 C5.36 8 2.72 8 0 8 C0 5.36 0 2.72 0 0 Z " fill="#E5E5E5" transform="translate(0,194)"/>
<path d="M0 0 C2.64 0 5.28 0 8 0 C8 2.64 8 5.28 8 8 C5.36 8 2.72 8 0 8 C0 5.36 0 2.72 0 0 Z " fill="#E6E6E6" transform="translate(211,186)"/>
<path d="M0 0 C2.64 0 5.28 0 8 0 C8 2.64 8 5.28 8 8 C5.36 8 2.72 8 0 8 C0 5.36 0 2.72 0 0 Z " fill="#FFFEFF" transform="translate(203,186)"/>
<path d="M0 0 C2.64 0 5.28 0 8 0 C8 2.64 8 5.28 8 8 C5.36 8 2.72 8 0 8 C0 5.36 0 2.72 0 0 Z " fill="#FFFFFF" transform="translate(17,186)"/>
<path d="M0 0 C2.64 0 5.28 0 8 0 C8 2.64 8 5.28 8 8 C5.36 8 2.72 8 0 8 C0 5.36 0 2.72 0 0 Z " fill="#E6E6E6" transform="translate(9,186)"/>
<path d="M0 0 C2.64 0 5.28 0 8 0 C8 2.64 8 5.28 8 8 C5.36 8 2.72 8 0 8 C0 5.36 0 2.72 0 0 Z " fill="#FFFFFF" transform="translate(0,186)"/>
<path d="M0 0 C2.64 0 5.28 0 8 0 C8 2.64 8 5.28 8 8 C5.36 8 2.72 8 0 8 C0 5.36 0 2.72 0 0 Z " fill="#E7E7E7" transform="translate(0,177)"/>
<path d="M0 0 C2.64 0 5.28 0 8 0 C8 2.64 8 5.28 8 8 C5.36 8 2.72 8 0 8 C0 5.36 0 2.72 0 0 Z " fill="#FEFEFE" transform="translate(211,177)"/>
<path d="M0 0 C2.64 0 5.28 0 8 0 C8 2.64 8 5.28 8 8 C5.36 8 2.72 8 0 8 C0 5.36 0 2.72 0 0 Z " fill="#E6E6E6" transform="translate(203,177)"/>
<path d="M0 0 C2.64 0 5.28 0 8 0 C8 2.64 8 5.28 8 8 C5.36 8 2.72 8 0 8 C0 5.36 0 2.72 0 0 Z " fill="#E6E6E6" transform="translate(211,169)"/>
<path d="M0 0 C2.64 0 5.28 0 8 0 C8 2.64 8 5.28 8 8 C5.36 8 2.72 8 0 8 C0 5.36 0 2.72 0 0 Z " fill="#FFFFFF" transform="translate(0,169)"/>
<path d="M0 0 C2.64 0 5.28 0 8 0 C8 2.64 8 5.28 8 8 C5.36 8 2.72 8 0 8 C0 5.36 0 2.72 0 0 Z " fill="#FFFFFE" transform="translate(0,152)"/>
<path d="M0 0 C2.64 0 5.28 0 8 0 C8 2.64 8 5.28 8 8 C5.36 8 2.72 8 0 8 C0 5.36 0 2.72 0 0 Z " fill="#FFFEFE" transform="translate(0,68)"/>
<path d="M0 0 C2.64 0 5.28 0 8 0 C8 2.64 8 5.28 8 8 C5.36 8 2.72 8 0 8 C0 5.36 0 2.72 0 0 Z " fill="#E5E5E5" transform="translate(0,59)"/>
<path d="M0 0 C2.64 0 5.28 0 8 0 C8 2.64 8 5.28 8 8 C5.36 8 2.72 8 0 8 C0 5.36 0 2.72 0 0 Z " fill="#E6E6E6" transform="translate(211,51)"/>
<path d="M0 0 C2.64 0 5.28 0 8 0 C8 2.64 8 5.28 8 8 C5.36 8 2.72 8 0 8 C0 5.36 0 2.72 0 0 Z " fill="#FFFFFF" transform="translate(0,51)"/>
<path d="M0 0 C2.64 0 5.28 0 8 0 C8 2.64 8 5.28 8 8 C5.36 8 2.72 8 0 8 C0 5.36 0 2.72 0 0 Z " fill="#E7E7E7" transform="translate(0,42)"/>
<path d="M0 0 C2.64 0 5.28 0 8 0 C8 2.64 8 5.28 8 8 C5.36 8 2.72 8 0 8 C0 5.36 0 2.72 0 0 Z " fill="#FEFEFE" transform="translate(211,42)"/>
<path d="M0 0 C2.64 0 5.28 0 8 0 C8 2.64 8 5.28 8 8 C5.36 8 2.72 8 0 8 C0 5.36 0 2.72 0 0 Z " fill="#FEFEFE" transform="translate(9,42)"/>
<path d="M0 0 C2.64 0 5.28 0 8 0 C8 2.64 8 5.28 8 8 C5.36 8 2.72 8 0 8 C0 5.36 0 2.72 0 0 Z " fill="#E6E6E6" transform="translate(211,34)"/>
<path d="M0 0 C2.64 0 5.28 0 8 0 C8 2.64 8 5.28 8 8 C5.36 8 2.72 8 0 8 C0 5.36 0 2.72 0 0 Z " fill="#FFFFFF" transform="translate(203,34)"/>
<path d="M0 0 C2.64 0 5.28 0 8 0 C8 2.64 8 5.28 8 8 C5.36 8 2.72 8 0 8 C0 5.36 0 2.72 0 0 Z " fill="#FFFFFF" transform="translate(17,34)"/>
<path d="M0 0 C2.64 0 5.28 0 8 0 C8 2.64 8 5.28 8 8 C5.36 8 2.72 8 0 8 C0 5.36 0 2.72 0 0 Z " fill="#E6E6E6" transform="translate(9,34)"/>
<path d="M0 0 C2.64 0 5.28 0 8 0 C8 2.64 8 5.28 8 8 C5.36 8 2.72 8 0 8 C0 5.36 0 2.72 0 0 Z " fill="#FFFFFF" transform="translate(0,34)"/>
<path d="M0 0 C2.64 0 5.28 0 8 0 C8 2.64 8 5.28 8 8 C5.36 8 2.72 8 0 8 C0 5.36 0 2.72 0 0 Z " fill="#FEFEFE" transform="translate(194,26)"/>
<path d="M0 0 C2.64 0 5.28 0 8 0 C8 2.64 8 5.28 8 8 C5.36 8 2.72 8 0 8 C0 5.36 0 2.72 0 0 Z " fill="#E8E8E8" transform="translate(17,26)"/>
<path d="M0 0 C2.64 0 5.28 0 8 0 C8 2.64 8 5.28 8 8 C5.36 8 2.72 8 0 8 C0 5.36 0 2.72 0 0 Z " fill="#FEFEFE" transform="translate(9,26)"/>
<path d="M0 0 C2.64 0 5.28 0 8 0 C8 2.64 8 5.28 8 8 C5.36 8 2.72 8 0 8 C0 5.36 0 2.72 0 0 Z " fill="#E6E6E6" transform="translate(211,17)"/>
<path d="M0 0 C2.64 0 5.28 0 8 0 C8 2.64 8 5.28 8 8 C5.36 8 2.72 8 0 8 C0 5.36 0 2.72 0 0 Z " fill="#FFFFFF" transform="translate(203,17)"/>
<path d="M0 0 C2.64 0 5.28 0 8 0 C8 2.64 8 5.28 8 8 C5.36 8 2.72 8 0 8 C0 5.36 0 2.72 0 0 Z " fill="#E6E6E6" transform="translate(194,17)"/>
<path d="M0 0 C2.64 0 5.28 0 8 0 C8 2.64 8 5.28 8 8 C5.36 8 2.72 8 0 8 C0 5.36 0 2.72 0 0 Z " fill="#FFFFFF" transform="translate(186,17)"/>
<path d="M0 0 C2.64 0 5.28 0 8 0 C8 2.64 8 5.28 8 8 C5.36 8 2.72 8 0 8 C0 5.36 0 2.72 0 0 Z " fill="#FFFEFE" transform="translate(34,17)"/>
<path d="M0 0 C2.64 0 5.28 0 8 0 C8 2.64 8 5.28 8 8 C5.36 8 2.72 8 0 8 C0 5.36 0 2.72 0 0 Z " fill="#E7E7E7" transform="translate(26,17)"/>
<path d="M0 0 C2.64 0 5.28 0 8 0 C8 2.64 8 5.28 8 8 C5.36 8 2.72 8 0 8 C0 5.36 0 2.72 0 0 Z " fill="#FFFFFF" transform="translate(17,17)"/>
<path d="M0 0 C2.64 0 5.28 0 8 0 C8 2.64 8 5.28 8 8 C5.36 8 2.72 8 0 8 C0 5.36 0 2.72 0 0 Z " fill="#E6E6E6" transform="translate(9,17)"/>
<path d="M0 0 C2.64 0 5.28 0 8 0 C8 2.64 8 5.28 8 8 C5.36 8 2.72 8 0 8 C0 5.36 0 2.72 0 0 Z " fill="#FFFFFF" transform="translate(0,17)"/>
<path d="M0 0 C2.64 0 5.28 0 8 0 C8 2.64 8 5.28 8 8 C5.36 8 2.72 8 0 8 C0 5.36 0 2.72 0 0 Z " fill="#FFFFFF" transform="translate(211,9)"/>
<path d="M0 0 C2.64 0 5.28 0 8 0 C8 2.64 8 5.28 8 8 C5.36 8 2.72 8 0 8 C0 5.36 0 2.72 0 0 Z " fill="#E7E7E7" transform="translate(203,9)"/>
<path d="M0 0 C2.64 0 5.28 0 8 0 C8 2.64 8 5.28 8 8 C5.36 8 2.72 8 0 8 C0 5.36 0 2.72 0 0 Z " fill="#FEFEFE" transform="translate(194,9)"/>
<path d="M0 0 C2.64 0 5.28 0 8 0 C8 2.64 8 5.28 8 8 C5.36 8 2.72 8 0 8 C0 5.36 0 2.72 0 0 Z " fill="#E6E6E6" transform="translate(186,9)"/>
<path d="M0 0 C2.64 0 5.28 0 8 0 C8 2.64 8 5.28 8 8 C5.36 8 2.72 8 0 8 C0 5.36 0 2.72 0 0 Z " fill="#E7E7E6" transform="translate(169,9)"/>
<path d="M0 0 C2.64 0 5.28 0 8 0 C8 2.64 8 5.28 8 8 C5.36 8 2.72 8 0 8 C0 5.36 0 2.72 0 0 Z " fill="#E6E6E6" transform="translate(34,9)"/>
<path d="M0 0 C2.64 0 5.28 0 8 0 C8 2.64 8 5.28 8 8 C5.36 8 2.72 8 0 8 C0 5.36 0 2.72 0 0 Z " fill="#FEFEFE" transform="translate(26,9)"/>
<path d="M0 0 C2.64 0 5.28 0 8 0 C8 2.64 8 5.28 8 8 C5.36 8 2.72 8 0 8 C0 5.36 0 2.72 0 0 Z " fill="#E6E6E6" transform="translate(17,9)"/>
<path d="M0 0 C2.64 0 5.28 0 8 0 C8 2.64 8 5.28 8 8 C5.36 8 2.72 8 0 8 C0 5.36 0 2.72 0 0 Z " fill="#FEFEFE" transform="translate(9,9)"/>
<path d="M0 0 C2.64 0 5.28 0 8 0 C8 2.64 8 5.28 8 8 C5.36 8 2.72 8 0 8 C0 5.36 0 2.72 0 0 Z " fill="#E6E6E6" transform="translate(0,9)"/>
<path d="M0 0 C2.64 0 5.28 0 8 0 C8 2.64 8 5.28 8 8 C5.36 8 2.72 8 0 8 C0 5.36 0 2.72 0 0 Z " fill="#E6E6E6" transform="translate(211,0)"/>
<path d="M0 0 C2.64 0 5.28 0 8 0 C8 2.64 8 5.28 8 8 C5.36 8 2.72 8 0 8 C0 5.36 0 2.72 0 0 Z " fill="#FFFFFF" transform="translate(203,0)"/>
<path d="M0 0 C2.64 0 5.28 0 8 0 C8 2.64 8 5.28 8 8 C5.36 8 2.72 8 0 8 C0 5.36 0 2.72 0 0 Z " fill="#E6E6E6" transform="translate(194,0)"/>
<path d="M0 0 C2.64 0 5.28 0 8 0 C8 2.64 8 5.28 8 8 C5.36 8 2.72 8 0 8 C0 5.36 0 2.72 0 0 Z " fill="#FFFFFF" transform="translate(186,0)"/>
<path d="M0 0 C2.64 0 5.28 0 8 0 C8 2.64 8 5.28 8 8 C5.36 8 2.72 8 0 8 C0 5.36 0 2.72 0 0 Z " fill="#E7E7E7" transform="translate(177,0)"/>
<path d="M0 0 C2.64 0 5.28 0 8 0 C8 2.64 8 5.28 8 8 C5.36 8 2.72 8 0 8 C0 5.36 0 2.72 0 0 Z " fill="#FFFFFF" transform="translate(169,0)"/>
<path d="M0 0 C2.64 0 5.28 0 8 0 C8 2.64 8 5.28 8 8 C5.36 8 2.72 8 0 8 C0 5.36 0 2.72 0 0 Z " fill="#FFFFFE" transform="translate(152,0)"/>
<path d="M0 0 C2.64 0 5.28 0 8 0 C8 2.64 8 5.28 8 8 C5.36 8 2.72 8 0 8 C0 5.36 0 2.72 0 0 Z " fill="#E6E6E6" transform="translate(59,0)"/>
<path d="M0 0 C2.64 0 5.28 0 8 0 C8 2.64 8 5.28 8 8 C5.36 8 2.72 8 0 8 C0 5.36 0 2.72 0 0 Z " fill="#FFFFFF" transform="translate(51,0)"/>
<path d="M0 0 C2.64 0 5.28 0 8 0 C8 2.64 8 5.28 8 8 C5.36 8 2.72 8 0 8 C0 5.36 0 2.72 0 0 Z " fill="#E7E7E7" transform="translate(42,0)"/>
<path d="M0 0 C2.64 0 5.28 0 8 0 C8 2.64 8 5.28 8 8 C5.36 8 2.72 8 0 8 C0 5.36 0 2.72 0 0 Z " fill="#FFFFFF" transform="translate(34,0)"/>
<path d="M0 0 C2.64 0 5.28 0 8 0 C8 2.64 8 5.28 8 8 C5.36 8 2.72 8 0 8 C0 5.36 0 2.72 0 0 Z " fill="#FFFFFF" transform="translate(17,0)"/>
<path d="M0 0 C2.64 0 5.28 0 8 0 C8 2.64 8 5.28 8 8 C5.36 8 2.72 8 0 8 C0 5.36 0 2.72 0 0 Z " fill="#E7E7E7" transform="translate(9,0)"/>
<path d="M0 0 C2.64 0 5.28 0 8 0 C8 2.64 8 5.28 8 8 C5.36 8 2.72 8 0 8 C0 5.36 0 2.72 0 0 Z " fill="#FFFFFF" transform="translate(0,0)"/>
<path d="M0 0 C1.134375 0.020625 2.26875 0.04125 3.4375 0.0625 C3.4375 2.7025 3.4375 5.3425 3.4375 8.0625 C0.7975 8.0625 -1.8425 8.0625 -4.5625 8.0625 C-4.60491723 5.72955225 -4.60342937 3.39547433 -4.5625 1.0625 C-3.5625 0.0625 -3.5625 0.0625 0 0 Z " fill="#FEFEFE" transform="translate(13.5625,176.9375)"/>
<path d="M0 0 C1.134375 0.020625 2.26875 0.04125 3.4375 0.0625 C3.4375 2.7025 3.4375 5.3425 3.4375 8.0625 C0.7975 8.0625 -1.8425 8.0625 -4.5625 8.0625 C-4.60491723 5.72955225 -4.60342937 3.39547433 -4.5625 1.0625 C-3.5625 0.0625 -3.5625 0.0625 0 0 Z " fill="#E7E7E7" transform="translate(207.5625,24.9375)"/>
<path d="M0 0 C1.134375 0.020625 2.26875 0.04125 3.4375 0.0625 C3.4375 2.7025 3.4375 5.3425 3.4375 8.0625 C0.7975 8.0625 -1.8425 8.0625 -4.5625 8.0625 C-4.60491723 5.72955225 -4.60342937 3.39547433 -4.5625 1.0625 C-3.5625 0.0625 -3.5625 0.0625 0 0 Z " fill="#FEFEFE" transform="translate(181.5625,8.9375)"/>
<path d="M0 0 C1.134375 0.020625 2.26875 0.04125 3.4375 0.0625 C3.4375 2.7025 3.4375 5.3425 3.4375 8.0625 C0.7975 8.0625 -1.8425 8.0625 -4.5625 8.0625 C-4.60491723 5.72955225 -4.60342937 3.39547433 -4.5625 1.0625 C-3.5625 0.0625 -3.5625 0.0625 0 0 Z " fill="#FEFEFE" transform="translate(46.5625,8.9375)"/>
<path d="M0 0 C2.64 0 5.28 0 8 0 C7.67 2.64 7.34 5.28 7 8 C4.36 8 1.72 8 -1 8 C-0.67 5.36 -0.34 2.72 0 0 Z " fill="#E7E6E6" transform="translate(43,203)"/>
<path d="M0 0 C2.875 -0.125 2.875 -0.125 6 0 C8 2 8 2 8.125 5.125 C8.08375 6.07375 8.0425 7.0225 8 8 C5.36 8 2.72 8 0 8 C0 5.36 0 2.72 0 0 Z " fill="#FEFDFC" transform="translate(59,211)"/>
<path d="M0 0 C2.64 0 5.28 0 8 0 C7.34 3.63 6.68 7.26 6 11 C5.67 10.01 5.34 9.02 5 8 C3.35 8 1.7 8 0 8 C0 5.36 0 2.72 0 0 Z " fill="#E9E4E2" transform="translate(0,76)"/>
<path d="M0 0 C2.64 0 5.28 0 8 0 C8 1.65 8 3.3 8 5 C8.99 5.33 9.98 5.66 11 6 C7.37 6.66 3.74 7.32 0 8 C0 5.36 0 2.72 0 0 Z " fill="#E9E4E2" transform="translate(76,0)"/>
<path d="M0 0 C2.31 0 4.62 0 7 0 C7.33 2.64 7.66 5.28 8 8 C5.36 8 2.72 8 0 8 C0 5.36 0 2.72 0 0 Z " fill="#E7E7E7" transform="translate(26,203)"/>
<path d="M0 0 C0 2.64 0 5.28 0 8 C-2.64 8.33 -5.28 8.66 -8 9 C-8 6.36 -8 3.72 -8 1 C-1.125 0 -1.125 0 0 0 Z " fill="#E7E5E5" transform="translate(211,42)"/>
<path d="M0 0 C2.64 0 5.28 0 8 0 C7.39873418 5.41139241 7.39873418 5.41139241 5.6875 7.9375 C4 9 4 9 1.8125 8.6875 C1.214375 8.460625 0.61625 8.23375 0 8 C0 5.36 0 2.72 0 0 Z " fill="#E8E5E4" transform="translate(17,42)"/>
<path d="M0 0 C2.64 0 5.28 0 8 0 C8 2.31 8 4.62 8 7 C5.36 7 2.72 7 0 7 C0 4.69 0 2.38 0 0 Z " fill="#E6E6E6" transform="translate(0,26)"/>
<path d="M0 0 C2.31 0 4.62 0 7 0 C7 2.64 7 5.28 7 8 C4.69 8 2.38 8 0 8 C0 5.36 0 2.72 0 0 Z " fill="#E6E6E6" transform="translate(26,0)"/>
<path d="M0 0 C9.57 0.33 19.14 0.66 29 1 C24.5 3.25 24.5 3.25 20.890625 2.9765625 C20.13652344 2.925 19.38242188 2.8734375 18.60546875 2.8203125 C17.82816406 2.75585938 17.05085938 2.69140625 16.25 2.625 C15.45722656 2.56828125 14.66445312 2.5115625 13.84765625 2.453125 C11.89768265 2.31216305 9.94871329 2.1574288 8 2 C8 2.66 8 3.32 8 4 C5.36 4 2.72 4 0 4 C0 2.68 0 1.36 0 0 Z " fill="#EEDBD4" transform="translate(93,221)"/>
<path d="M0 0 C1.61949011 2.57213134 2.04408751 3.67669159 1.625 6.75 C1.41875 7.4925 1.2125 8.235 1 9 C-0.98 9 -2.96 9 -5 9 C-5 6.36 -5 3.72 -5 1 C-3 0 -3 0 0 0 Z " fill="#FDF9F7" transform="translate(14,160)"/>
<path d="M0 0 C0.33 0 0.66 0 1 0 C1 2.64 1 5.28 1 8 C2.65 8 4.3 8 6 8 C6 9.98 6 11.96 6 14 C4.02 14 2.04 14 0 14 C0 12.35 0 10.7 0 9 C-2.64 9 -5.28 9 -8 9 C-8 8.67 -8 8.34 -8 8 C-5.36 8 -2.72 8 0 8 C0 5.36 0 2.72 0 0 Z " fill="#F2F2F2" transform="translate(219,211)"/>
<path d="M0 0 C1.32 0.33 2.64 0.66 4 1 C4 3.64 4 6.28 4 9 C1.36 9.66 -1.28 10.32 -4 11 C-2.7874262 7.27566618 -1.49140021 3.62197194 0 0 Z " fill="#E9E2DF" transform="translate(215,151)"/>
<path d="M0 0 C1.65 0 3.3 0 5 0 C5.33 2.97 5.66 5.94 6 9 C4.02 9 2.04 9 0 9 C0 6.03 0 3.06 0 0 Z " fill="#FDFBF9" transform="translate(0,135)"/>
<path d="M0 0 C0.33 1.98 0.66 3.96 1 6 C-1.97 6 -4.94 6 -8 6 C-8 4.35 -8 2.7 -8 1 C-5.29120665 -0.35439668 -2.99066732 -0.06501451 0 0 Z " fill="#FCF9F6" transform="translate(143,219)"/>
<path d="M0 0 C1.65 0 3.3 0 5 0 C5 2.97 5 5.94 5 9 C2.03 8.505 2.03 8.505 -1 8 C-1.125 2.25 -1.125 2.25 0 0 Z " fill="#FCF9F7" transform="translate(220,135)"/>
<path d="M0 0 C1.65 0 3.3 0 5 0 C5 2.64 5 5.28 5 8 C3.35 8 1.7 8 0 8 C-0.33 9.32 -0.66 10.64 -1 12 C-1.33 9.69 -1.66 7.38 -2 5 C-1.34 5 -0.68 5 0 5 C0 3.35 0 1.7 0 0 Z " fill="#E9E4E2" transform="translate(220,76)"/>
<path d="M0 0 C4.95 0.99 4.95 0.99 10 2 C10 3.65 10 5.3 10 7 C7.36 7 4.72 7 2 7 C1.34 4.69 0.68 2.38 0 0 Z " fill="#E8E6E5" transform="translate(142,218)"/>
<path d="M0 0 C0 2.31 0 4.62 0 7 C-2.64 7 -5.28 7 -8 7 C-8.33 5.68 -8.66 4.36 -9 3 C-2.25 0 -2.25 0 0 0 Z " fill="#E9E2E0" transform="translate(160,212)"/>
<path d="M0 0 C2.64 0 5.28 0 8 0 C8 1.98 8 3.96 8 6 C5.36 5.67 2.72 5.34 0 5 C0 3.35 0 1.7 0 0 Z " fill="#FEFCFA" transform="translate(135,0)"/>
<path d="M0 0 C2.97 0 5.94 0 9 0 C9 1.65 9 3.3 9 5 C6.03 5 3.06 5 0 5 C0 3.35 0 1.7 0 0 Z " fill="#FCF8F6" transform="translate(84,0)"/>
<path d="M0 0 C2.31 0.66 4.62 1.32 7 2 C7 4.64 7 7.28 7 10 C5.35 10 3.7 10 2 10 C2 7.36 2 4.72 2 2 C1.34 2 0.68 2 0 2 C0 1.34 0 0.68 0 0 Z " fill="#E8E5E7" transform="translate(218,142)"/>
<path d="M0 0 C2.64 0 5.28 0 8 0 C8 0.66 8 1.32 8 2 C13.61 2 19.22 2 25 2 C25 2.33 25 2.66 25 3 C12.625 3.495 12.625 3.495 0 4 C0 2.68 0 1.36 0 0 Z " fill="#EDD6CF" transform="translate(93,0)"/>
<path d="M0 0 C2.97 0.33 5.94 0.66 9 1 C9 2.32 9 3.64 9 5 C6.03 5 3.06 5 0 5 C0 3.35 0 1.7 0 0 Z " fill="#FDFDFC" transform="translate(84,220)"/>
<path d="M0 0 C1.65 0 3.3 0 5 0 C5 2.97 5 5.94 5 9 C3.68 9 2.36 9 1 9 C0.67 6.03 0.34 3.06 0 0 Z " fill="#FDFDFC" transform="translate(220,84)"/>
<path d="M0 0 C1.65 0 3.3 0 5 0 C4.67 2.97 4.34 5.94 4 9 C2.68 9 1.36 9 0 9 C0 6.03 0 3.06 0 0 Z " fill="#FDFDFC" transform="translate(0,84)"/>
<path d="M0 0 C1.98 0 3.96 0 6 0 C6 3.96 6 7.92 6 12 C0 4 0 4 0 0 Z " fill="#FCF6F4" transform="translate(205,51)"/>
<path d="M0 0 C2.64 0 5.28 0 8 0 C7.9375 1.8125 7.9375 1.8125 7 4 C3.4375 5.75 3.4375 5.75 0 7 C0 4.69 0 2.38 0 0 Z " fill="#FEFBFA" transform="translate(59,9)"/>
<path d="M0 0 C2.64 0 5.28 0 8 0 C8 1.65 8 3.3 8 5 C5.36 5 2.72 5 0 5 C0 3.35 0 1.7 0 0 Z " fill="#E6E6E6" transform="translate(211,220)"/>
<path d="M0 0 C2.64 0 5.28 0 8 0 C8 1.65 8 3.3 8 5 C5.36 5 2.72 5 0 5 C0 3.35 0 1.7 0 0 Z " fill="#FFFFFF" transform="translate(203,220)"/>
<path d="M0 0 C2.64 0 5.28 0 8 0 C8 1.65 8 3.3 8 5 C5.36 5 2.72 5 0 5 C0 3.35 0 1.7 0 0 Z " fill="#E6E6E6" transform="translate(194,220)"/>
<path d="M0 0 C2.64 0 5.28 0 8 0 C8 1.65 8 3.3 8 5 C5.36 5 2.72 5 0 5 C0 3.35 0 1.7 0 0 Z " fill="#FFFFFF" transform="translate(186,220)"/>
<path d="M0 0 C2.64 0 5.28 0 8 0 C8 1.65 8 3.3 8 5 C5.36 5 2.72 5 0 5 C0 3.35 0 1.7 0 0 Z " fill="#E7E7E7" transform="translate(177,220)"/>
<path d="M0 0 C2.64 0 5.28 0 8 0 C8 1.65 8 3.3 8 5 C5.36 5 2.72 5 0 5 C0 3.35 0 1.7 0 0 Z " fill="#FFFFFF" transform="translate(169,220)"/>
<path d="M0 0 C2.64 0 5.28 0 8 0 C8 1.65 8 3.3 8 5 C5.36 5 2.72 5 0 5 C0 3.35 0 1.7 0 0 Z " fill="#FFFFFF" transform="translate(152,220)"/>
<path d="M0 0 C2.64 0 5.28 0 8 0 C8 1.65 8 3.3 8 5 C5.36 5 2.72 5 0 5 C0 3.35 0 1.7 0 0 Z " fill="#FFFFFE" transform="translate(68,220)"/>
<path d="M0 0 C2.64 0 5.28 0 8 0 C8 1.65 8 3.3 8 5 C5.36 5 2.72 5 0 5 C0 3.35 0 1.7 0 0 Z " fill="#E6E6E6" transform="translate(59,220)"/>
<path d="M0 0 C2.64 0 5.28 0 8 0 C8 1.65 8 3.3 8 5 C5.36 5 2.72 5 0 5 C0 3.35 0 1.7 0 0 Z " fill="#FFFFFF" transform="translate(51,220)"/>
<path d="M0 0 C2.64 0 5.28 0 8 0 C8 1.65 8 3.3 8 5 C5.36 5 2.72 5 0 5 C0 3.35 0 1.7 0 0 Z " fill="#E7E7E7" transform="translate(42,220)"/>
<path d="M0 0 C2.64 0 5.28 0 8 0 C8 1.65 8 3.3 8 5 C5.36 5 2.72 5 0 5 C0 3.35 0 1.7 0 0 Z " fill="#FFFFFF" transform="translate(34,220)"/>
<path d="M0 0 C2.64 0 5.28 0 8 0 C8 1.65 8 3.3 8 5 C5.36 5 2.72 5 0 5 C0 3.35 0 1.7 0 0 Z " fill="#E6E6E6" transform="translate(9,220)"/>
<path d="M0 0 C2.64 0 5.28 0 8 0 C8 1.65 8 3.3 8 5 C5.36 5 2.72 5 0 5 C0 3.35 0 1.7 0 0 Z " fill="#FFFFFF" transform="translate(0,220)"/>
<path d="M0 0 C1.65 0 3.3 0 5 0 C5 2.64 5 5.28 5 8 C3.35 8 1.7 8 0 8 C0 5.36 0 2.72 0 0 Z " fill="#E6E6E6" transform="translate(220,211)"/>
<path d="M0 0 C1.65 0 3.3 0 5 0 C5 2.64 5 5.28 5 8 C3.35 8 1.7 8 0 8 C0 5.36 0 2.72 0 0 Z " fill="#FFFFFF" transform="translate(220,203)"/>
<path d="M0 0 C1.65 0 3.3 0 5 0 C5 2.64 5 5.28 5 8 C3.35 8 1.7 8 0 8 C0 5.36 0 2.72 0 0 Z " fill="#E6E6E6" transform="translate(220,194)"/>
<path d="M0 0 C1.65 0 3.3 0 5 0 C5 2.64 5 5.28 5 8 C3.35 8 1.7 8 0 8 C0 5.36 0 2.72 0 0 Z " fill="#FFFFFF" transform="translate(220,186)"/>
<path d="M0 0 C1.65 0 3.3 0 5 0 C5 2.64 5 5.28 5 8 C3.35 8 1.7 8 0 8 C0 5.36 0 2.72 0 0 Z " fill="#E7E7E7" transform="translate(220,177)"/>
<path d="M0 0 C1.65 0 3.3 0 5 0 C5 2.64 5 5.28 5 8 C3.35 8 1.7 8 0 8 C0 5.36 0 2.72 0 0 Z " fill="#FFFFFF" transform="translate(220,169)"/>
<path d="M0 0 C1.65 0 3.3 0 5 0 C5 2.64 5 5.28 5 8 C3.35 8 1.7 8 0 8 C0 5.36 0 2.72 0 0 Z " fill="#FFFFFF" transform="translate(220,152)"/>
<path d="M0 0 C1.65 0 3.3 0 5 0 C5 2.64 5 5.28 5 8 C3.35 8 1.7 8 0 8 C0 5.36 0 2.72 0 0 Z " fill="#FFFFFE" transform="translate(220,68)"/>
<path d="M0 0 C1.65 0 3.3 0 5 0 C5 2.64 5 5.28 5 8 C3.35 8 1.7 8 0 8 C0 5.36 0 2.72 0 0 Z " fill="#E6E6E6" transform="translate(220,59)"/>
<path d="M0 0 C1.98 0 3.96 0 6 0 C5.25 5.75 5.25 5.75 3 8 C2.01 8 1.02 8 0 8 C0 5.36 0 2.72 0 0 Z " fill="#FEFCFA" transform="translate(9,59)"/>
<path d="M0 0 C1.65 0 3.3 0 5 0 C5 2.64 5 5.28 5 8 C3.35 8 1.7 8 0 8 C0 5.36 0 2.72 0 0 Z " fill="#FFFFFF" transform="translate(220,51)"/>
<path d="M0 0 C1.65 0 3.3 0 5 0 C5 2.64 5 5.28 5 8 C3.35 8 1.7 8 0 8 C0 5.36 0 2.72 0 0 Z " fill="#E7E7E7" transform="translate(220,42)"/>
<path d="M0 0 C1.65 0 3.3 0 5 0 C5 2.64 5 5.28 5 8 C3.35 8 1.7 8 0 8 C0 5.36 0 2.72 0 0 Z " fill="#FFFFFF" transform="translate(220,34)"/>
<path d="M0 0 C1.65 0 3.3 0 5 0 C5 2.64 5 5.28 5 8 C3.35 8 1.7 8 0 8 C0 5.36 0 2.72 0 0 Z " fill="#E7E7E7" transform="translate(220,9)"/>
<path d="M0 0 C1.65 0 3.3 0 5 0 C5 2.64 5 5.28 5 8 C3.35 8 1.7 8 0 8 C0 5.36 0 2.72 0 0 Z " fill="#FFFFFF" transform="translate(220,0)"/>
<path d="M0 0 C0.33 0 0.66 0 1 0 C1.33 3.63 1.66 7.26 2 11 C0.35 11 -1.3 11 -3 11 C-3 8.36 -3 5.72 -3 3 C-2.01 3 -1.02 3 0 3 C0 2.01 0 1.02 0 0 Z " fill="#E9D7D3" transform="translate(3,124)"/>
<path d="M0 0 C2.31 0 4.62 0 7 0 C7 1.65 7 3.3 7 5 C4.69 5 2.38 5 0 5 C0 3.35 0 1.7 0 0 Z " fill="#E6E6E6" transform="translate(161,220)"/>
<path d="M0 0 C2.31 0 4.62 0 7 0 C7 1.65 7 3.3 7 5 C4.69 5 2.38 5 0 5 C0 3.35 0 1.7 0 0 Z " fill="#E6E6E6" transform="translate(26,220)"/>
<path d="M0 0 C1.65 0 3.3 0 5 0 C5 2.31 5 4.62 5 7 C3.35 7 1.7 7 0 7 C0 4.69 0 2.38 0 0 Z " fill="#E7E7E7" transform="translate(220,161)"/>
<path d="M0 0 C1.65 0 3.3 0 5 0 C5 2.31 5 4.62 5 7 C3.35 7 1.7 7 0 7 C0 4.69 0 2.38 0 0 Z " fill="#E6E6E6" transform="translate(220,26)"/>
<path d="M0 0 C0 1.65 0 3.3 0 5 C-2.64 5 -5.28 5 -8 5 C-7.67 3.68 -7.34 2.36 -7 1 C-4.50935112 0.31292445 -2.62113708 0 0 0 Z " fill="#E9DFDC" transform="translate(135,220)"/>
<path d="M0 0 C2.64 0.99 5.28 1.98 8 3 C8 3.99 8 4.98 8 6 C5.36 6 2.72 6 0 6 C0 4.02 0 2.04 0 0 Z " fill="#EAE2E0" transform="translate(68,213)"/>
<path d="M0 0 C0.99 0 1.98 0 3 0 C3 2.64 3 5.28 3 8 C1.35 8 -0.3 8 -2 8 C-1.125 1.125 -1.125 1.125 0 0 Z " fill="#E9E1DE" transform="translate(222,127)"/>
<path d="M0 0 C1.32 0 2.64 0 4 0 C4 2.64 4 5.28 4 8 C3.34 8 2.68 8 2 8 C2 9.98 2 11.96 2 14 C1.67 14 1.34 14 1 14 C0.67 9.38 0.34 4.76 0 0 Z " fill="#ECE5E0" transform="translate(221,93)"/>
<path d="M0 0 C1.32 0 2.64 0 4 0 C3.67 4.62 3.34 9.24 3 14 C2.67 14 2.34 14 2 14 C2 12.02 2 10.04 2 8 C1.34 8 0.68 8 0 8 C0 5.36 0 2.72 0 0 Z " fill="#EDE4E1" transform="translate(0,93)"/>
<path d="M0 0 C1.65 0 3.3 0 5 0 C5 2.64 5 5.28 5 8 C4.01 8 3.02 8 2 8 C0.74335022 5.09399739 0 3.20395416 0 0 Z " fill="#E9E3E0" transform="translate(214,68)"/>
<path d="M0 0 C2.64 0 5.28 0 8 0 C8 1.32 8 2.64 8 4 C5.69 4 3.38 4 1 4 C0.67 2.68 0.34 1.36 0 0 Z " fill="#EAE3E2" transform="translate(127,0)"/>
<path d="M0 0 C2.5 2.3125 2.5 2.3125 5 5 C5 5.99 5 6.98 5 8 C3.35 8 1.7 8 0 8 C0 5.36 0 2.72 0 0 Z " fill="#FEFAF6" transform="translate(17,169)"/>
<path d="M0 0 C0.66 0 1.32 0 2 0 C2 1.98 2 3.96 2 6 C-0.31 6 -2.62 6 -5 6 C-3.38405168 3.95880212 -1.7143618 1.95927063 0 0 Z " fill="#FEFBF8" transform="translate(192,188)"/>
<path d="M0 0 C1.65 0 3.3 0 5 0 C5 1.65 5 3.3 5 5 C3.35 5 1.7 5 0 5 C0 3.35 0 1.7 0 0 Z " fill="#FFFFFF" transform="translate(220,220)"/>
<path d="M0 0 C1.99097846 2.98646769 2.94124926 5.59687262 4 9 C2.68 9 1.36 9 0 9 C0 6.03 0 3.06 0 0 Z " fill="#EBDCD4" transform="translate(9,151)"/>
<path d="M0 0 C1.32 0.33 2.64 0.66 4 1 C2.515 4.96 2.515 4.96 1 9 C0.67 9 0.34 9 0 9 C0 6.03 0 3.06 0 0 Z " fill="#F2E6E1" transform="translate(8,67)"/>
<path d="M0 0 C1.32 0 2.64 0 4 0 C4.33 2.31 4.66 4.62 5 7 C3.29115995 5.37660195 1.62553283 3.70680947 0 2 C0 1.34 0 0.68 0 0 Z " fill="#FAF3EE" transform="translate(198,42)"/>
<path d="M0 0 C2.97 0 5.94 0 9 0 C9 1.32 9 2.64 9 4 C6.03 3.01 3.06 2.02 0 1 C0 0.67 0 0.34 0 0 Z " fill="#EBDDD7" transform="translate(151,9)"/>
<path d="M0 0 C2.31 0 4.62 0 7 0 C7 0.66 7 1.32 7 2 C4.69 2.66 2.38 3.32 0 4 C0 2.68 0 1.36 0 0 Z " fill="#F1E6E1" transform="translate(67,8)"/>
<path d="M0 0 C0 0.99 0 1.98 0 3 C-2.64 3 -5.28 3 -8 3 C-4.93882432 0.37613513 -4.26826873 0 0 0 Z " fill="#FDF8F6" transform="translate(152,216)"/>
</svg>
