<?xml version="1.0" encoding="UTF-8"?>
<svg version="1.1" xmlns="http://www.w3.org/2000/svg" width="256" height="197">
<path d="M0 0 C84.48 0 168.96 0 256 0 C256 65.01 256 130.02 256 197 C171.52 197 87.04 197 0 197 C0 131.99 0 66.98 0 0 Z " fill="#FEFEFE" transform="translate(0,0)"/>
<path d="M0 0 C4.52815133 2.96671983 7.45827109 7.32793828 9.15234375 12.41015625 C9.4410473 16.80123774 9.43016565 21.19816148 9.46484375 25.59765625 C9.49384766 26.80486328 9.52285156 28.01207031 9.55273438 29.25585938 C9.60745603 36.95477508 9.30558691 43.17880194 3.63354492 48.95751953 C-0.58916829 52.6121979 -3.30553984 53.77326885 -8.93359375 53.69140625 C-10.84765625 53.41015625 -10.84765625 53.41015625 -12.91015625 51.72265625 C-14.10619177 48.7724353 -13.9172426 47.38971823 -12.84765625 44.41015625 C-11.17475467 42.2353842 -9.64992052 41.3018724 -7.22265625 39.97265625 C-4.68772201 38.64056583 -4.68772201 38.64056583 -4.03515625 36.22265625 C-3.97328125 35.62453125 -3.91140625 35.02640625 -3.84765625 34.41015625 C-4.83765625 34.90515625 -4.83765625 34.90515625 -5.84765625 35.41015625 C-12.18530908 35.95650563 -16.60444242 35.11824355 -21.84765625 31.41015625 C-26.83439317 26.74793583 -28.92909866 22.94425743 -29.16015625 16.09765625 C-29.07808692 10.5442981 -27.25547895 6.89714024 -23.421875 2.9375 C-16.095914 -3.5555352 -8.71412326 -4.15596648 0 0 Z " fill="#455146" transform="translate(190.84765625,82.58984375)"/>
<path d="M0 0 C2.9375 1 2.9375 1 4.75 2.5625 C6.43971906 6.03087071 6.61748457 9.15981482 6.9375 13 C7.62714844 12.93039063 8.31679687 12.86078125 9.02734375 12.7890625 C15.72996208 12.40290342 19.74757153 13.26657214 25.125 17.34765625 C29.58218474 21.41099492 30.74883326 25.50016567 31.1875 31.3125 C30.8122524 36.84740216 29.18264333 40.55825509 25.5625 44.75 C19.94947073 49.56116795 16.12824897 50.54880083 8.8125 50.3515625 C4.91922952 49.87548323 2.83400161 48.61391609 -0.0625 46 C-0.97 45.195625 -1.8775 44.39125 -2.8125 43.5625 C-8.289377 37.32494564 -7.43483927 30.01872012 -7.43310547 22.1706543 C-7.43749415 19.94047529 -7.47389586 17.71225329 -7.51171875 15.48242188 C-7.51758489 14.05990257 -7.52155564 12.63737391 -7.5234375 11.21484375 C-7.53165527 9.92698975 -7.53987305 8.63913574 -7.54833984 7.31225586 C-7.0625 4 -7.0625 4 -5.22509766 1.54907227 C-3.0625 0 -3.0625 0 0 0 Z " fill="#445045" transform="translate(74.0625,67)"/>
<path d="M0 0 C3.77559806 2.54174248 6.04236435 6.08272596 7.79296875 10.20703125 C8.73718438 17.2776692 8.04177846 23.37181532 3.79296875 29.20703125 C-0.47023945 33.36092642 -4.15532945 35.07466339 -10.08203125 35.45703125 C-13.02950794 35.4017315 -14.86768853 34.99840264 -17.76953125 34.08203125 C-22.12016057 32.97459833 -24.06291912 33.68470435 -28.20703125 35.20703125 C-28.11164063 34.5315625 -28.01625 33.85609375 -27.91796875 33.16015625 C-27.80710937 32.268125 -27.69625 31.37609375 -27.58203125 30.45703125 C-27.46601562 29.5753125 -27.35 28.69359375 -27.23046875 27.78515625 C-27.20432684 24.90954667 -27.88237798 23.70311297 -29.20703125 21.20703125 C-30.18612519 14.41029777 -29.29244993 9.69009317 -25.20703125 4.20703125 C-18.05299414 -3.34891806 -9.09770728 -4.9799829 0 0 Z " fill="#9ED5CB" transform="translate(151.20703125,82.79296875)"/>
<path d="M0 0 C3.46083596 0.69216719 4.40423221 1.64312611 6.5 4.5 C7.1022092 7.64308535 7.06044051 10.74513306 7.03125 13.9375 C7.0350769 14.8545874 7.03890381 15.7716748 7.04284668 16.71655273 C7.04556549 18.65316873 7.03820646 20.58982147 7.02148438 22.52636719 C7.00007394 25.48976553 7.02128669 28.45073951 7.046875 31.4140625 C7.04423172 33.29688035 7.03910673 35.17969669 7.03125 37.0625 C7.03934692 37.94800537 7.04744385 38.83351074 7.05578613 39.74584961 C6.96301948 45.83525419 6.96301948 45.83525419 4.69335938 49.09375 C2.5 50.5 2.5 50.5 -1.125 50.4375 C-4.5 49.5 -4.5 49.5 -6.5 46.5 C-6.76742554 44.57167053 -6.76742554 44.57167053 -6.79052734 42.36743164 C-6.80328705 41.53969742 -6.81604675 40.7119632 -6.82919312 39.85914612 C-6.83141876 38.96847946 -6.83364441 38.07781281 -6.8359375 37.16015625 C-6.8425943 36.2416539 -6.8492511 35.32315155 -6.85610962 34.3768158 C-6.86623448 32.434255 -6.87092669 30.49165943 -6.87060547 28.54907227 C-6.87497858 25.57705408 -6.91129926 22.606521 -6.94921875 19.63476562 C-6.95508694 17.74740091 -6.95905632 15.86002915 -6.9609375 13.97265625 C-6.97530853 13.08401382 -6.98967957 12.1953714 -7.00448608 11.27980042 C-6.95892497 5.12759635 -6.95892497 5.12759635 -4.62744141 1.93920898 C-2.5 0.5 -2.5 0.5 0 0 Z " fill="#485449" transform="translate(113.5,66.5)"/>
<path d="M0 0 C2 2 2 2 2.375 5.4375 C2 9 2 9 0.375 11 C-2.81179601 12.34180884 -4.71109893 11.92947204 -8 11 C-10 9 -10 9 -10.375 5.5625 C-10 2 -10 2 -8.375 0 C-5.18820399 -1.34180884 -3.28890107 -0.92947204 0 0 Z " fill="#F7F7F7" transform="translate(90,93)"/>
<path d="M0 0 C1.875 1.125 1.875 1.125 3 3 C3.38976435 6.11811483 3.50422245 8.11019567 1.9375 10.875 C-1.14071911 12.66235303 -3.52906068 12.43386742 -7 12 C-9 10.3125 -9 10.3125 -10 8 C-9.8624874 5.18099161 -9.35530428 3.54230653 -7.8125 1.1875 C-5.11075568 -0.58260835 -3.15326426 -0.39415803 0 0 Z " fill="#F7F7F7" transform="translate(184,93)"/>
<path d="M0 0 C2 3 2 3 1.75 6.0625 C1 9 1 9 -1 11 C-4.10347254 11.33015665 -6.15781176 11.50531294 -8.875 9.875 C-10.52854531 7.11909116 -10.39365568 5.14924548 -10 2 C-7.65569181 -2.27491494 -4.20074737 -1.06928115 0 0 Z " fill="#475348" transform="translate(63,106)"/>
</svg>
